<svg xmlns="http://www.w3.org/2000/svg" version="1.1" xmlns:xlink="http://www.w3.org/1999/xlink" xmlns:svgjs="http://svgjs.dev/svgjs" width="2000" height="2993" viewBox="0 0 2000 2993"><g transform="matrix(1,0,0,1,-2.929934050160341,1.2117408906881337)"><svg viewBox="0 0 165 247" data-background-color="#ffffff" preserveAspectRatio="xMidYMid meet" height="2993" width="2000" xmlns="http://www.w3.org/2000/svg" xmlns:xlink="http://www.w3.org/1999/xlink"><g id="tight-bounds" transform="matrix(1,0,0,1,0.2417195591382324,-0.09999999999999432)"><svg viewBox="0 0 164.5165608817235 247.2" height="247.2" width="164.5165608817235"><g><svg viewBox="0 0 395.52 594.3021387998256" height="247.2" width="164.5165608817235"><g transform="matrix(1,0,0,1,0,277.9406729802344)"><svg viewBox="0 0 395.52 316.3614658195911" height="316.3614658195911" width="395.52"><g id="textblocktransform"><svg viewBox="0 0 395.52 316.3614658195911" height="316.3614658195911" width="395.52" id="textblock"><g><svg viewBox="0 0 395.52 170.63025777777779" height="170.63025777777779" width="395.52"><g transform="matrix(1,0,0,1,0,0)"><svg width="395.52" viewBox="3.559999942779541 -35.54999923706055 82.4000015258789 35.54999923706055" height="170.63025777777779" data-palette-color="#ff0000"><g class="undefined-text-0" data-fill-palette-color="primary" id="text-0"><path d="M9.86-35.55L9.86 0 3.56 0 3.56-35.55 9.86-35.55ZM31.2-35.55L16.85-18.33 8.59-9.59 7.5-15.89 13.31-23.22 23.51-35.55 31.2-35.55ZM24.37 0L12.87-16.72 17.21-21.02 31.86 0 24.37 0ZM41.84-35.55L41.84 0 35.57 0 35.57-35.55 41.84-35.55ZM51.95-35.55L57.54-35.55 67.65-8.45 77.75-35.55 83.37-35.55 69.87 0 65.42 0 51.95-35.55ZM49.36-35.55L54.71-35.55 55.63-11.4 55.63 0 49.36 0 49.36-35.55ZM80.61-35.55L85.96-35.55 85.96 0 79.66 0 79.66-11.4 80.61-35.55Z" fill="#ffffff" data-fill-palette-color="primary"></path></g></svg></g></svg></g><g transform="matrix(1,0,0,1,0,210.91196651292447)"><svg viewBox="0 0 395.52 105.44949930666665" height="105.44949930666665" width="395.52"><g transform="matrix(1,0,0,1,0,0)"><svg width="395.52" viewBox="2.25 -40.5 153.60000610351562 40.95000076293945" height="105.44949930666665" data-palette-color="#ca3433"><path d="M9.2 0.45L9.2 0.45Q5.5 0.45 3.88-2.35 2.25-5.15 2.25-11.65L2.25-11.65 2.25-17Q2.25-20.8 2.8-23.55 3.35-26.3 4.83-27.83 6.3-29.35 9.05-29.35L9.05-29.35Q10.75-29.35 12.03-28.58 13.3-27.8 14.15-26.85L14.15-26.85 14.15-40.5 17.8-40.5 17.8 0 14.15 0 14.15-2.05Q13.3-1.1 12.08-0.33 10.85 0.45 9.2 0.45ZM9.95-2.45L9.95-2.45Q11.15-2.45 12.23-3 13.3-3.55 14.15-4.35L14.15-4.35 14.15-24.45Q13.4-25.15 12.3-25.83 11.2-26.5 9.85-26.5L9.85-26.5Q7.45-26.5 6.68-24.38 5.9-22.25 5.9-18.2L5.9-18.2 5.9-11.35Q5.9-8.45 6.23-6.45 6.55-4.45 7.43-3.45 8.3-2.45 9.95-2.45ZM79.67 0.45L79.67 0.45Q76.97 0.45 75.25-0.63 73.52-1.7 72.7-4.2 71.87-6.7 71.87-10.85L71.87-10.85 71.87-18.15Q71.87-22.45 72.72-24.88 73.57-27.3 75.32-28.33 77.07-29.35 79.72-29.35L79.72-29.35Q82.77-29.35 84.37-28.05 85.97-26.75 86.6-24.13 87.22-21.5 87.22-17.4L87.22-17.4 87.22-14.8 75.52-14.8 75.52-9.75Q75.52-6.95 75.95-5.33 76.37-3.7 77.3-3 78.22-2.3 79.67-2.3L79.67-2.3Q80.77-2.3 81.67-2.73 82.57-3.15 83.1-4.38 83.62-5.6 83.62-7.85L83.62-7.85 83.62-9.85 87.17-9.85 87.17-8.25Q87.17-4.3 85.55-1.93 83.92 0.45 79.67 0.45ZM75.52-18.85L75.52-16.9 83.62-16.9 83.62-19.3Q83.62-21.6 83.37-23.23 83.12-24.85 82.3-25.73 81.47-26.6 79.67-26.6L79.67-26.6Q78.17-26.6 77.25-25.95 76.32-25.3 75.92-23.63 75.52-21.95 75.52-18.85L75.52-18.85ZM149.8 0L145.5 0 139.25-28.9 142.95-28.9 147.65-4.2 152.3-28.9 155.85-28.9 149.8 0Z" opacity="1" transform="matrix(1,0,0,1,0,0)" fill="#ffffff" class="undefined-text-1" data-fill-palette-color="secondary" id="text-1"></path></svg></g></svg></g></svg></g></svg></g><g transform="matrix(1,0,0,1,99.07137224502945,0)"><svg viewBox="0 0 197.37725550994108 197.37725550994108" height="197.37725550994108" width="197.37725550994108"><g><svg></svg></g><g id="icon-0"><svg viewBox="0 0 197.37725550994108 197.37725550994108" height="197.37725550994108" width="197.37725550994108"><g><path d="M0 98.689c0-54.504 44.184-98.689 98.689-98.689 54.504 0 98.689 44.184 98.688 98.689 0 54.504-44.184 98.689-98.688 98.688-54.504 0-98.689-44.184-98.689-98.688zM98.689 181.99c46.006 0 83.301-37.295 83.301-83.301 0-46.006-37.295-83.301-83.301-83.301-46.006 0-83.301 37.295-83.301 83.301 0 46.006 37.295 83.301 83.301 83.301z" data-fill-palette-color="accent" fill="#ffffff" stroke="transparent"></path></g><g transform="matrix(1,0,0,1,69.06842027225593,60.40887226719753)"><svg viewBox="0 0 59.240414965429224 76.55951097554602" height="76.55951097554602" width="59.240414965429224"><g><svg xmlns="http://www.w3.org/2000/svg" xmlns:xlink="http://www.w3.org/1999/xlink" version="1.1" x="0" y="0" viewBox="12.982999801635742 1 75.68599700927734 97.81300354003906" enable-background="new 0 0 100 100" xml:space="preserve" height="76.55951097554602" width="59.240414965429224" class="icon-s-0" data-fill-palette-color="accent" id="s-0"><g fill="#ed2647" data-fill-palette-color="accent"><polygon fill-rule="evenodd" clip-rule="evenodd" points="12.983,10.59 30.001,98.813 24.129,39.764 53.15,37.872 53.096,27.989    64.549,1 53.622,18.977  " fill="#ffffff" data-fill-palette-color="accent"></polygon><polygon fill-rule="evenodd" clip-rule="evenodd" points="59.389,54.548 64.549,1.007 55.809,40.723 36.197,41.768 37.767,62.23    30.001,98.813 42.058,58.914  " fill="#ffffff" data-fill-palette-color="accent"></polygon><polygon fill-rule="evenodd" clip-rule="evenodd" points="62.8,67.182 63.349,56.729 47.37,60.484 47.338,72.281 30.001,98.813    51.681,71.197  " fill="#ffffff" data-fill-palette-color="accent"></polygon><polygon fill-rule="evenodd" clip-rule="evenodd" points="65.711,62.394 80.552,57.663 82.061,45.131 66.162,47.226  " fill="#ffffff" data-fill-palette-color="accent"></polygon><polygon fill-rule="evenodd" clip-rule="evenodd" points="72.07,44.502 83.058,43.085 84.639,32.807 76.56,32.434 64.549,1    72.979,31.967  " fill="#ffffff" data-fill-palette-color="accent"></polygon><polygon fill-rule="evenodd" clip-rule="evenodd" points="87.413,31.294 88.669,21.788 79.125,19.094 64.549,1 79.032,23.437    78.61,30.437  " fill="#ffffff" data-fill-palette-color="accent"></polygon></g></svg></g></svg></g></svg></g></svg></g><g></g></svg></g><defs></defs></svg><rect width="164.5165608817235" height="247.2" fill="none" stroke="none" visibility="hidden"></rect></g></svg></g></svg>